<mxfile host="Electron" modified="2023-10-07T09:33:57.593Z" agent="Mozilla/5.0 (Windows NT 10.0; Win64; x64) AppleWebKit/537.36 (KHTML, like Gecko) draw.io/22.0.0 Chrome/114.0.5735.289 Electron/25.8.3 Safari/537.36" etag="uzTIVcz_3ulni6I_FUlk" version="22.0.0" type="device">
  <diagram name="Page-1" id="4l5HgZwKcCmQVXj1XTzE">
    <mxGraphModel dx="2100" dy="1242" grid="1" gridSize="10" guides="1" tooltips="1" connect="1" arrows="1" fold="1" page="1" pageScale="1" pageWidth="2336" pageHeight="1654" math="0" shadow="0">
      <root>
        <mxCell id="0" />
        <mxCell id="1" parent="0" />
        <mxCell id="Jgq4L3OuLyY0CTShGeMc-1" value="" style="endArrow=none;html=1;strokeWidth=6;rounded=0;" edge="1" parent="1" source="Jgq4L3OuLyY0CTShGeMc-51">
          <mxGeometry width="50" height="50" relative="1" as="geometry">
            <mxPoint x="556" y="200" as="sourcePoint" />
            <mxPoint x="1960" y="200" as="targetPoint" />
          </mxGeometry>
        </mxCell>
        <mxCell id="Jgq4L3OuLyY0CTShGeMc-2" value="" style="endArrow=none;html=1;strokeWidth=6;rounded=0;" edge="1" parent="1" target="Jgq4L3OuLyY0CTShGeMc-3" source="Jgq4L3OuLyY0CTShGeMc-21">
          <mxGeometry width="50" height="50" relative="1" as="geometry">
            <mxPoint x="436" y="200" as="sourcePoint" />
            <mxPoint x="1076" y="200" as="targetPoint" />
          </mxGeometry>
        </mxCell>
        <mxCell id="Jgq4L3OuLyY0CTShGeMc-3" value="" style="rhombus;whiteSpace=wrap;html=1;" vertex="1" parent="1">
          <mxGeometry x="586" y="185" width="30" height="30" as="geometry" />
        </mxCell>
        <mxCell id="Jgq4L3OuLyY0CTShGeMc-4" value="IMPORTAÇÃO DO AVATAR NO UNREAL" style="text;html=1;strokeColor=none;fillColor=none;align=center;verticalAlign=middle;whiteSpace=wrap;rounded=0;" vertex="1" parent="1">
          <mxGeometry x="320.5" y="230" width="95" height="29" as="geometry" />
        </mxCell>
        <mxCell id="Jgq4L3OuLyY0CTShGeMc-5" value="" style="endArrow=none;html=1;strokeWidth=6;rounded=0;" edge="1" parent="1" source="Jgq4L3OuLyY0CTShGeMc-3" target="Jgq4L3OuLyY0CTShGeMc-6">
          <mxGeometry width="50" height="50" relative="1" as="geometry">
            <mxPoint x="616" y="200" as="sourcePoint" />
            <mxPoint x="1076" y="200" as="targetPoint" />
          </mxGeometry>
        </mxCell>
        <mxCell id="Jgq4L3OuLyY0CTShGeMc-6" value="" style="rhombus;whiteSpace=wrap;html=1;" vertex="1" parent="1">
          <mxGeometry x="706" y="185" width="30" height="30" as="geometry" />
        </mxCell>
        <mxCell id="Jgq4L3OuLyY0CTShGeMc-7" value="ESCOLHA DE EXPRESSÃO FACIAL" style="text;html=1;strokeColor=none;fillColor=none;align=center;verticalAlign=middle;whiteSpace=wrap;rounded=0;" vertex="1" parent="1">
          <mxGeometry x="658.5" y="146" width="125" height="30" as="geometry" />
        </mxCell>
        <mxCell id="Jgq4L3OuLyY0CTShGeMc-8" value="" style="endArrow=none;html=1;strokeWidth=6;rounded=0;" edge="1" parent="1" source="Jgq4L3OuLyY0CTShGeMc-6" target="Jgq4L3OuLyY0CTShGeMc-9">
          <mxGeometry width="50" height="50" relative="1" as="geometry">
            <mxPoint x="736" y="200" as="sourcePoint" />
            <mxPoint x="1076" y="200" as="targetPoint" />
          </mxGeometry>
        </mxCell>
        <mxCell id="Jgq4L3OuLyY0CTShGeMc-9" value="" style="rhombus;whiteSpace=wrap;html=1;" vertex="1" parent="1">
          <mxGeometry x="826" y="185" width="30" height="30" as="geometry" />
        </mxCell>
        <mxCell id="Jgq4L3OuLyY0CTShGeMc-10" value="CONVERSÃO PARA&amp;nbsp; STATIC MESH" style="text;html=1;strokeColor=none;fillColor=none;align=center;verticalAlign=middle;whiteSpace=wrap;rounded=0;" vertex="1" parent="1">
          <mxGeometry x="778.5" y="221" width="125" height="30" as="geometry" />
        </mxCell>
        <mxCell id="Jgq4L3OuLyY0CTShGeMc-11" value="" style="endArrow=none;html=1;strokeWidth=6;rounded=0;" edge="1" parent="1" source="Jgq4L3OuLyY0CTShGeMc-9" target="Jgq4L3OuLyY0CTShGeMc-12">
          <mxGeometry width="50" height="50" relative="1" as="geometry">
            <mxPoint x="846" y="200" as="sourcePoint" />
            <mxPoint x="1076" y="200" as="targetPoint" />
          </mxGeometry>
        </mxCell>
        <mxCell id="Jgq4L3OuLyY0CTShGeMc-12" value="" style="rhombus;whiteSpace=wrap;html=1;" vertex="1" parent="1">
          <mxGeometry x="946" y="185" width="30" height="30" as="geometry" />
        </mxCell>
        <mxCell id="Jgq4L3OuLyY0CTShGeMc-13" value="EXPORTAÇÃO DO MODELO PARA .FBX" style="text;html=1;strokeColor=none;fillColor=none;align=center;verticalAlign=middle;whiteSpace=wrap;rounded=0;" vertex="1" parent="1">
          <mxGeometry x="901" y="146" width="120" height="30" as="geometry" />
        </mxCell>
        <mxCell id="Jgq4L3OuLyY0CTShGeMc-14" value="" style="endArrow=none;html=1;strokeWidth=6;rounded=0;" edge="1" parent="1" source="Jgq4L3OuLyY0CTShGeMc-12" target="Jgq4L3OuLyY0CTShGeMc-15">
          <mxGeometry width="50" height="50" relative="1" as="geometry">
            <mxPoint x="976" y="200" as="sourcePoint" />
            <mxPoint x="1236" y="200" as="targetPoint" />
          </mxGeometry>
        </mxCell>
        <mxCell id="Jgq4L3OuLyY0CTShGeMc-15" value="" style="rhombus;whiteSpace=wrap;html=1;" vertex="1" parent="1">
          <mxGeometry x="1066" y="185" width="30" height="30" as="geometry" />
        </mxCell>
        <mxCell id="Jgq4L3OuLyY0CTShGeMc-16" value="" style="shape=flexArrow;endArrow=classic;startArrow=classic;html=1;rounded=0;width=6.666666666666667;endSize=5.8916666666666675;endWidth=20.27777777777778;" edge="1" parent="1">
          <mxGeometry width="100" height="100" relative="1" as="geometry">
            <mxPoint x="1016.5" y="392" as="sourcePoint" />
            <mxPoint x="1740" y="392" as="targetPoint" />
          </mxGeometry>
        </mxCell>
        <mxCell id="Jgq4L3OuLyY0CTShGeMc-17" value="&lt;font style=&quot;font-size: 18px;&quot;&gt;BLENDER&lt;/font&gt;" style="edgeLabel;html=1;align=center;verticalAlign=middle;resizable=0;points=[];" vertex="1" connectable="0" parent="Jgq4L3OuLyY0CTShGeMc-16">
          <mxGeometry x="0.1931" y="-5" relative="1" as="geometry">
            <mxPoint x="-47" y="15" as="offset" />
          </mxGeometry>
        </mxCell>
        <mxCell id="Jgq4L3OuLyY0CTShGeMc-18" value="IMPORTAÇÃO PARA O BLENDER" style="text;html=1;strokeColor=none;fillColor=none;align=center;verticalAlign=middle;whiteSpace=wrap;rounded=0;" vertex="1" parent="1">
          <mxGeometry x="1016.5" y="221" width="129" height="30" as="geometry" />
        </mxCell>
        <mxCell id="Jgq4L3OuLyY0CTShGeMc-19" value="" style="shape=flexArrow;endArrow=classic;startArrow=classic;html=1;rounded=0;width=6.666666666666667;endSize=5.8916666666666675;endWidth=20.27777777777778;" edge="1" parent="1">
          <mxGeometry width="100" height="100" relative="1" as="geometry">
            <mxPoint x="660" y="392" as="sourcePoint" />
            <mxPoint x="1020" y="392" as="targetPoint" />
          </mxGeometry>
        </mxCell>
        <mxCell id="Jgq4L3OuLyY0CTShGeMc-20" value="&lt;font style=&quot;font-size: 18px;&quot;&gt;UNREAL&lt;br&gt;&amp;nbsp;ENGINE&lt;/font&gt;" style="edgeLabel;html=1;align=center;verticalAlign=middle;resizable=0;points=[];" vertex="1" connectable="0" parent="Jgq4L3OuLyY0CTShGeMc-19">
          <mxGeometry x="0.1931" y="-5" relative="1" as="geometry">
            <mxPoint x="-34" y="28" as="offset" />
          </mxGeometry>
        </mxCell>
        <mxCell id="Jgq4L3OuLyY0CTShGeMc-23" value="" style="endArrow=none;html=1;strokeWidth=6;rounded=0;" edge="1" parent="1" source="Jgq4L3OuLyY0CTShGeMc-25" target="Jgq4L3OuLyY0CTShGeMc-21">
          <mxGeometry width="50" height="50" relative="1" as="geometry">
            <mxPoint x="233" y="200" as="sourcePoint" />
            <mxPoint x="586" y="200" as="targetPoint" />
          </mxGeometry>
        </mxCell>
        <mxCell id="Jgq4L3OuLyY0CTShGeMc-21" value="" style="rhombus;whiteSpace=wrap;html=1;" vertex="1" parent="1">
          <mxGeometry x="466" y="185" width="30" height="30" as="geometry" />
        </mxCell>
        <mxCell id="Jgq4L3OuLyY0CTShGeMc-24" value="CRIAÇÃO DO AVATAR" style="text;html=1;strokeColor=none;fillColor=none;align=center;verticalAlign=middle;whiteSpace=wrap;rounded=0;" vertex="1" parent="1">
          <mxGeometry x="216.25" y="141" width="77.5" height="40" as="geometry" />
        </mxCell>
        <mxCell id="Jgq4L3OuLyY0CTShGeMc-26" value="" style="endArrow=none;html=1;strokeWidth=6;rounded=0;" edge="1" parent="1" source="Jgq4L3OuLyY0CTShGeMc-27" target="Jgq4L3OuLyY0CTShGeMc-25">
          <mxGeometry width="50" height="50" relative="1" as="geometry">
            <mxPoint x="233" y="200" as="sourcePoint" />
            <mxPoint x="466" y="200" as="targetPoint" />
          </mxGeometry>
        </mxCell>
        <mxCell id="Jgq4L3OuLyY0CTShGeMc-25" value="" style="rhombus;whiteSpace=wrap;html=1;" vertex="1" parent="1">
          <mxGeometry x="353" y="185" width="30" height="30" as="geometry" />
        </mxCell>
        <mxCell id="Jgq4L3OuLyY0CTShGeMc-28" value="" style="endArrow=none;html=1;strokeWidth=6;rounded=0;" edge="1" parent="1" target="Jgq4L3OuLyY0CTShGeMc-27">
          <mxGeometry width="50" height="50" relative="1" as="geometry">
            <mxPoint x="160" y="200" as="sourcePoint" />
            <mxPoint x="353" y="200" as="targetPoint" />
          </mxGeometry>
        </mxCell>
        <mxCell id="Jgq4L3OuLyY0CTShGeMc-27" value="" style="rhombus;whiteSpace=wrap;html=1;" vertex="1" parent="1">
          <mxGeometry x="240" y="185" width="30" height="30" as="geometry" />
        </mxCell>
        <mxCell id="Jgq4L3OuLyY0CTShGeMc-33" value="EXPORTAÇÃO DO CABELO" style="text;html=1;strokeColor=none;fillColor=none;align=center;verticalAlign=middle;whiteSpace=wrap;rounded=0;" vertex="1" parent="1">
          <mxGeometry x="442.25" y="141" width="77.5" height="40" as="geometry" />
        </mxCell>
        <mxCell id="Jgq4L3OuLyY0CTShGeMc-34" value="PROCURA MANUAL DE TODAS AS TEXTURAS&amp;nbsp;" style="text;html=1;strokeColor=none;fillColor=none;align=center;verticalAlign=middle;whiteSpace=wrap;rounded=0;" vertex="1" parent="1">
          <mxGeometry x="553.5" y="240" width="95" height="29" as="geometry" />
        </mxCell>
        <mxCell id="Jgq4L3OuLyY0CTShGeMc-38" value="" style="endArrow=none;html=1;strokeWidth=6;rounded=0;" edge="1" parent="1" source="Jgq4L3OuLyY0CTShGeMc-15" target="Jgq4L3OuLyY0CTShGeMc-37">
          <mxGeometry width="50" height="50" relative="1" as="geometry">
            <mxPoint x="1096" y="200" as="sourcePoint" />
            <mxPoint x="1440" y="200" as="targetPoint" />
          </mxGeometry>
        </mxCell>
        <mxCell id="Jgq4L3OuLyY0CTShGeMc-37" value="" style="rhombus;whiteSpace=wrap;html=1;" vertex="1" parent="1">
          <mxGeometry x="1190" y="185" width="30" height="30" as="geometry" />
        </mxCell>
        <mxCell id="Jgq4L3OuLyY0CTShGeMc-40" value="" style="endArrow=none;html=1;strokeWidth=6;rounded=0;" edge="1" parent="1" source="Jgq4L3OuLyY0CTShGeMc-37" target="Jgq4L3OuLyY0CTShGeMc-39">
          <mxGeometry width="50" height="50" relative="1" as="geometry">
            <mxPoint x="1220" y="200" as="sourcePoint" />
            <mxPoint x="1440" y="200" as="targetPoint" />
          </mxGeometry>
        </mxCell>
        <mxCell id="Jgq4L3OuLyY0CTShGeMc-39" value="" style="rhombus;whiteSpace=wrap;html=1;" vertex="1" parent="1">
          <mxGeometry x="1310" y="185" width="30" height="30" as="geometry" />
        </mxCell>
        <mxCell id="Jgq4L3OuLyY0CTShGeMc-41" value="LIMPEZA DA MALHA" style="text;html=1;strokeColor=none;fillColor=none;align=center;verticalAlign=middle;whiteSpace=wrap;rounded=0;" vertex="1" parent="1">
          <mxGeometry x="1145" y="155" width="120" height="30" as="geometry" />
        </mxCell>
        <mxCell id="Jgq4L3OuLyY0CTShGeMc-42" value="TEXTURIZAÇÃO MANUAL PARA CADA COMPONENTE DO MODELO" style="text;html=1;strokeColor=none;fillColor=none;align=center;verticalAlign=middle;whiteSpace=wrap;rounded=0;" vertex="1" parent="1">
          <mxGeometry x="1260.5" y="230" width="129" height="30" as="geometry" />
        </mxCell>
        <mxCell id="Jgq4L3OuLyY0CTShGeMc-46" value="" style="endArrow=none;html=1;strokeWidth=6;rounded=0;" edge="1" parent="1" source="Jgq4L3OuLyY0CTShGeMc-39" target="Jgq4L3OuLyY0CTShGeMc-45">
          <mxGeometry width="50" height="50" relative="1" as="geometry">
            <mxPoint x="1340" y="200" as="sourcePoint" />
            <mxPoint x="1720" y="200" as="targetPoint" />
          </mxGeometry>
        </mxCell>
        <mxCell id="Jgq4L3OuLyY0CTShGeMc-45" value="" style="rhombus;whiteSpace=wrap;html=1;" vertex="1" parent="1">
          <mxGeometry x="1430" y="185" width="30" height="30" as="geometry" />
        </mxCell>
        <mxCell id="Jgq4L3OuLyY0CTShGeMc-48" value="" style="endArrow=none;html=1;strokeWidth=6;rounded=0;" edge="1" parent="1" source="Jgq4L3OuLyY0CTShGeMc-45" target="Jgq4L3OuLyY0CTShGeMc-47">
          <mxGeometry width="50" height="50" relative="1" as="geometry">
            <mxPoint x="1460" y="200" as="sourcePoint" />
            <mxPoint x="1720" y="200" as="targetPoint" />
          </mxGeometry>
        </mxCell>
        <mxCell id="Jgq4L3OuLyY0CTShGeMc-47" value="" style="rhombus;whiteSpace=wrap;html=1;" vertex="1" parent="1">
          <mxGeometry x="1550" y="185" width="30" height="30" as="geometry" />
        </mxCell>
        <mxCell id="Jgq4L3OuLyY0CTShGeMc-49" value="SHADING" style="text;html=1;strokeColor=none;fillColor=none;align=center;verticalAlign=middle;whiteSpace=wrap;rounded=0;" vertex="1" parent="1">
          <mxGeometry x="1385" y="155" width="120" height="30" as="geometry" />
        </mxCell>
        <mxCell id="Jgq4L3OuLyY0CTShGeMc-50" value="EFEITOS DE PÓS-PROCESSAMENTO" style="text;html=1;strokeColor=none;fillColor=none;align=center;verticalAlign=middle;whiteSpace=wrap;rounded=0;" vertex="1" parent="1">
          <mxGeometry x="1505" y="229" width="120" height="30" as="geometry" />
        </mxCell>
        <mxCell id="Jgq4L3OuLyY0CTShGeMc-52" value="" style="endArrow=none;html=1;strokeWidth=6;rounded=0;" edge="1" parent="1" source="Jgq4L3OuLyY0CTShGeMc-47" target="Jgq4L3OuLyY0CTShGeMc-51">
          <mxGeometry width="50" height="50" relative="1" as="geometry">
            <mxPoint x="1580" y="200" as="sourcePoint" />
            <mxPoint x="1720" y="200" as="targetPoint" />
          </mxGeometry>
        </mxCell>
        <mxCell id="Jgq4L3OuLyY0CTShGeMc-51" value="" style="rhombus;whiteSpace=wrap;html=1;" vertex="1" parent="1">
          <mxGeometry x="1670" y="185" width="30" height="30" as="geometry" />
        </mxCell>
        <mxCell id="Jgq4L3OuLyY0CTShGeMc-53" value="RENDERING" style="text;html=1;strokeColor=none;fillColor=none;align=center;verticalAlign=middle;whiteSpace=wrap;rounded=0;" vertex="1" parent="1">
          <mxGeometry x="1625" y="155" width="120" height="30" as="geometry" />
        </mxCell>
        <mxCell id="Jgq4L3OuLyY0CTShGeMc-54" value="" style="rhombus;whiteSpace=wrap;html=1;" vertex="1" parent="1">
          <mxGeometry x="1790" y="185" width="30" height="30" as="geometry" />
        </mxCell>
        <mxCell id="Jgq4L3OuLyY0CTShGeMc-55" value="IMPORTAÇÃO NO PROJETO UNREAL DO DESENVOLVIMENTO DO JOGO" style="text;html=1;strokeColor=none;fillColor=none;align=center;verticalAlign=middle;whiteSpace=wrap;rounded=0;" vertex="1" parent="1">
          <mxGeometry x="1700" y="229" width="210" height="30" as="geometry" />
        </mxCell>
        <mxCell id="Jgq4L3OuLyY0CTShGeMc-56" value="" style="endArrow=classic;html=1;rounded=0;strokeWidth=5;" edge="1" parent="1">
          <mxGeometry width="50" height="50" relative="1" as="geometry">
            <mxPoint x="1800" y="280" as="sourcePoint" />
            <mxPoint x="720" y="220" as="targetPoint" />
            <Array as="points">
              <mxPoint x="1800" y="360" />
              <mxPoint x="1320" y="360" />
              <mxPoint x="720" y="360" />
            </Array>
          </mxGeometry>
        </mxCell>
        <mxCell id="Jgq4L3OuLyY0CTShGeMc-58" value="&lt;font style=&quot;font-size: 21px;&quot;&gt;Repetição destes passos para cada expressão diferente&lt;/font&gt;" style="edgeLabel;html=1;align=center;verticalAlign=middle;resizable=0;points=[];" vertex="1" connectable="0" parent="Jgq4L3OuLyY0CTShGeMc-56">
          <mxGeometry x="0.0101" y="-2" relative="1" as="geometry">
            <mxPoint x="44" y="-18" as="offset" />
          </mxGeometry>
        </mxCell>
        <mxCell id="Jgq4L3OuLyY0CTShGeMc-59" value="" style="shape=flexArrow;endArrow=classic;startArrow=classic;html=1;rounded=0;width=6.666666666666667;endSize=5.8916666666666675;endWidth=20.27777777777778;" edge="1" parent="1">
          <mxGeometry width="100" height="100" relative="1" as="geometry">
            <mxPoint x="165" y="392" as="sourcePoint" />
            <mxPoint x="300" y="392" as="targetPoint" />
          </mxGeometry>
        </mxCell>
        <mxCell id="Jgq4L3OuLyY0CTShGeMc-60" value="&lt;span style=&quot;font-size: 18px;&quot;&gt;METAHUMAN&lt;/span&gt;" style="edgeLabel;html=1;align=center;verticalAlign=middle;resizable=0;points=[];" vertex="1" connectable="0" parent="Jgq4L3OuLyY0CTShGeMc-59">
          <mxGeometry x="0.1931" y="-5" relative="1" as="geometry">
            <mxPoint x="-17" y="28" as="offset" />
          </mxGeometry>
        </mxCell>
        <mxCell id="Jgq4L3OuLyY0CTShGeMc-61" value="" style="shape=flexArrow;endArrow=classic;startArrow=classic;html=1;rounded=0;width=6.666666666666667;endSize=5.8916666666666675;endWidth=20.27777777777778;" edge="1" parent="1">
          <mxGeometry width="100" height="100" relative="1" as="geometry">
            <mxPoint x="300" y="392" as="sourcePoint" />
            <mxPoint x="540" y="392" as="targetPoint" />
          </mxGeometry>
        </mxCell>
        <mxCell id="Jgq4L3OuLyY0CTShGeMc-62" value="&lt;font style=&quot;font-size: 18px;&quot;&gt;UNREAL&lt;br&gt;&amp;nbsp;ENGINE&lt;/font&gt;" style="edgeLabel;html=1;align=center;verticalAlign=middle;resizable=0;points=[];" vertex="1" connectable="0" parent="Jgq4L3OuLyY0CTShGeMc-61">
          <mxGeometry x="0.1931" y="-5" relative="1" as="geometry">
            <mxPoint x="-17" y="28" as="offset" />
          </mxGeometry>
        </mxCell>
        <mxCell id="Jgq4L3OuLyY0CTShGeMc-63" value="" style="shape=flexArrow;endArrow=classic;startArrow=classic;html=1;rounded=0;width=6.666666666666667;endSize=5.8916666666666675;endWidth=20.27777777777778;" edge="1" parent="1">
          <mxGeometry width="100" height="100" relative="1" as="geometry">
            <mxPoint x="1740" y="392" as="sourcePoint" />
            <mxPoint x="1960" y="392" as="targetPoint" />
          </mxGeometry>
        </mxCell>
        <mxCell id="Jgq4L3OuLyY0CTShGeMc-64" value="&lt;font style=&quot;font-size: 18px;&quot;&gt;UNREAL&lt;br&gt;&amp;nbsp;ENGINE&lt;/font&gt;" style="edgeLabel;html=1;align=center;verticalAlign=middle;resizable=0;points=[];" vertex="1" connectable="0" parent="Jgq4L3OuLyY0CTShGeMc-63">
          <mxGeometry x="0.1931" y="-5" relative="1" as="geometry">
            <mxPoint x="-17" y="28" as="offset" />
          </mxGeometry>
        </mxCell>
      </root>
    </mxGraphModel>
  </diagram>
</mxfile>
